<svg width="82" height="82" xmlns="http://www.w3.org/2000/svg" xmlns:xlink="http://www.w3.org/1999/xlink" xml:space="preserve" overflow="hidden"><g transform="translate(-313 -221)"><path d="M351.865 238.083C338.625 238.083 327.948 248.76 327.948 262 327.948 266.185 329.058 270.115 330.938 273.531 332.731 271.652 334.696 269.773 336.831 267.723 342.212 262.683 348.533 257.558 353.829 253.8 354.171 253.544 354.513 253.373 354.94 253.373 355.879 253.373 356.648 254.142 356.648 255.081 356.648 255.679 356.392 256.106 355.965 256.448L355.965 256.448C348.362 261.915 338.283 270.371 331.45 278.058 331.45 278.058 330.51 279.083 330.083 279.596L330.083 279.596C326.24 284.123 323.677 288.223 323.677 291.127L328.802 291.127C328.802 289.248 331.792 285.148 336.319 280.279 340.504 283.867 345.885 286.002 351.865 286.002 356.135 286.002 360.235 284.892 363.737 282.842L363.737 282.842C382.017 272.677 384.323 253.971 384.323 232.958 384.323 232.958 364.421 238.425 351.865 238.083Z" fill="#FFFFFF"/></g></svg>