<svg width="67" height="67" xmlns="http://www.w3.org/2000/svg" xmlns:xlink="http://www.w3.org/1999/xlink" xml:space="preserve" overflow="hidden"><g transform="translate(-200 -1186)"><path d="M232.628 1199.56C232.338 1199.56 232.051 1199.56 231.771 1199.55 220.915 1199.77 212.292 1208.75 212.508 1219.6 212.511 1221.72 212.841 1223.84 213.485 1225.86 214.109 1227.73 215.046 1229.47 216.257 1231.03 211.221 1236.76 210.021 1240.65 209.779 1242.58 209.732 1242.97 210.003 1243.32 210.385 1243.36 210.413 1243.37 210.441 1243.37 210.469 1243.37 210.82 1243.37 211.117 1243.11 211.16 1242.76 211.338 1241.34 212.303 1237.75 217.128 1232.18L217.326 1232.44C219.997 1236.06 223.915 1238.55 228.321 1239.44 229.443 1239.65 230.582 1239.76 231.722 1239.76L231.84 1239.76C235.185 1239.76 238.468 1238.84 241.331 1237.11 256.072 1228.57 257.927 1212.86 257.927 1195.21 257.927 1195.21 242.765 1199.56 232.628 1199.56ZM240.612 1235.92C237.965 1237.51 234.932 1238.36 231.84 1238.36L231.722 1238.36C230.667 1238.36 229.614 1238.26 228.576 1238.07 224.509 1237.25 220.895 1234.94 218.438 1231.6L218.074 1231.12C221.953 1226.88 227.986 1221.59 237.377 1215.33 237.698 1215.12 237.784 1214.69 237.57 1214.37 237.356 1214.05 236.923 1213.96 236.602 1214.17 227.303 1220.37 221.205 1225.65 217.212 1229.97 216.171 1228.6 215.36 1227.06 214.813 1225.43 214.21 1223.54 213.904 1221.56 213.905 1219.57 213.716 1209.5 221.703 1201.17 231.772 1200.94 232.051 1200.95 232.342 1200.95 232.632 1200.95 240.894 1200.95 252.18 1198.19 256.528 1197.04 256.352 1215.51 253.452 1228.48 240.612 1235.92Z" stroke="#FFFFFF" stroke-width="0.697917" fill="#FFFFFF"/></g></svg>