<svg width="96" height="96" xmlns="http://www.w3.org/2000/svg" xmlns:xlink="http://www.w3.org/1999/xlink" xml:space="preserve" overflow="hidden"><g transform="translate(-106 -23)"><path d="M152.75 42.429C152.335 42.429 151.924 42.429 151.522 42.413 135.967 42.729 123.612 55.5913 123.922 71.146 123.926 74.1881 124.398 77.2115 125.322 80.11 126.215 82.7866 127.558 85.2914 129.293 87.517 122.078 95.731 120.358 101.304 120.012 104.076 119.944 104.624 120.332 105.123 120.88 105.192 120.92 105.197 120.96 105.2 121 105.2 121.504 105.199 121.928 104.824 121.991 104.324 122.246 102.288 123.628 97.145 130.542 89.169L130.826 89.543C134.652 94.7244 140.266 98.2994 146.58 99.574 148.187 99.8728 149.818 100.023 151.453 100.023L151.621 100.023C156.415 100.022 161.118 98.712 165.221 96.233 186.342 84 189 61.485 189 36.2 189 36.2 167.275 42.429 152.75 42.429ZM164.19 94.521C160.398 96.8113 156.051 98.0215 151.621 98.021L151.453 98.021C149.941 98.0204 148.432 97.8815 146.945 97.606 141.118 96.4291 135.939 93.1221 132.419 88.331L131.897 87.644C137.455 81.572 146.1 74 159.555 65.032 160.014 64.7255 160.139 64.1045 159.832 63.645 159.525 63.1855 158.904 63.0615 158.445 63.368 145.12 72.251 136.383 79.813 130.662 86 129.17 84.035 128.008 81.8394 127.224 79.5 126.361 76.7837 125.922 73.9502 125.924 71.1 125.653 56.6717 137.097 44.7392 151.524 44.408 151.924 44.418 152.341 44.423 152.757 44.423 164.594 44.423 180.765 40.467 186.995 38.817 186.743 65.278 182.588 83.867 164.19 94.521Z" stroke="#4F8541" fill="#4F8541"/></g></svg>